<mxfile host="app.diagrams.net" modified="2021-10-21T03:49:26.370Z" agent="5.0 (Windows NT 6.1; Win64; x64) AppleWebKit/537.36 (KHTML, like Gecko) Chrome/94.0.4606.81 Safari/537.36 Edg/94.0.992.50" etag="QaJYW7Q1JAOsTzN2FgdA" version="15.5.6" type="github">
  <diagram id="yUtEYNiM7KGLK9aQ-FmT" name="Page-1">
    <mxGraphModel dx="874" dy="719" grid="1" gridSize="10" guides="1" tooltips="1" connect="1" arrows="1" fold="1" page="1" pageScale="1" pageWidth="827" pageHeight="1169" math="0" shadow="0">
      <root>
        <mxCell id="0" />
        <mxCell id="1" parent="0" />
        <mxCell id="ZHDutYi5xnlQX7m66QQl-7" value="" style="shape=ext;double=1;rounded=1;whiteSpace=wrap;html=1;fontFamily=Helvetica;fontSize=14;" parent="1" vertex="1">
          <mxGeometry x="20" y="10" width="770" height="500" as="geometry" />
        </mxCell>
        <mxCell id="ZHDutYi5xnlQX7m66QQl-10" value="" style="rounded=1;whiteSpace=wrap;html=1;" parent="1" vertex="1">
          <mxGeometry x="48" y="280" width="210" height="160" as="geometry" />
        </mxCell>
        <mxCell id="796_uvgJ9OJGoqZPj89N-1" value="" style="rounded=1;whiteSpace=wrap;html=1;" parent="1" vertex="1">
          <mxGeometry x="288" y="280" width="462" height="180" as="geometry" />
        </mxCell>
        <mxCell id="ZHDutYi5xnlQX7m66QQl-1" value="Vargem Grande do Sul / SP&#xa;&#xa;" style="text;strokeColor=none;fillColor=none;spacingLeft=4;spacingRight=4;overflow=hidden;rotatable=0;points=[[0,0.5],[1,0.5]];portConstraint=eastwest;fontSize=14;fontStyle=1" parent="1" vertex="1">
          <mxGeometry x="423" y="290" width="207" height="30" as="geometry" />
        </mxCell>
        <mxCell id="ZHDutYi5xnlQX7m66QQl-6" value="Campinas / SP&#xa;&#xa;" style="text;strokeColor=none;fillColor=none;spacingLeft=4;spacingRight=4;overflow=hidden;rotatable=0;points=[[0,0.5],[1,0.5]];portConstraint=eastwest;fontSize=14;fontStyle=1" parent="1" vertex="1">
          <mxGeometry x="98" y="300" width="122" height="30" as="geometry" />
        </mxCell>
        <mxCell id="ZHDutYi5xnlQX7m66QQl-11" value="" style="rounded=1;whiteSpace=wrap;html=1;" parent="1" vertex="1">
          <mxGeometry x="48" y="40" width="452" height="210" as="geometry" />
        </mxCell>
        <mxCell id="ZHDutYi5xnlQX7m66QQl-14" value="Computação em Nuvem (AWS)&#xa;&#xa;" style="text;strokeColor=none;fillColor=none;spacingLeft=4;spacingRight=4;overflow=hidden;rotatable=0;points=[[0,0.5],[1,0.5]];portConstraint=eastwest;fontSize=14;fontStyle=1" parent="1" vertex="1">
          <mxGeometry x="193" y="50" width="237" height="30" as="geometry" />
        </mxCell>
        <mxCell id="ZHDutYi5xnlQX7m66QQl-17" value="" style="rounded=1;whiteSpace=wrap;html=1;" parent="1" vertex="1">
          <mxGeometry x="518" y="120" width="230" height="130" as="geometry" />
        </mxCell>
        <mxCell id="ZHDutYi5xnlQX7m66QQl-19" value="Ambiente de teste" style="text;strokeColor=none;fillColor=none;spacingLeft=4;spacingRight=4;overflow=hidden;rotatable=0;points=[[0,0.5],[1,0.5]];portConstraint=eastwest;fontSize=14;fontStyle=1" parent="1" vertex="1">
          <mxGeometry x="563" y="130" width="157" height="30" as="geometry" />
        </mxCell>
        <mxCell id="ZHDutYi5xnlQX7m66QQl-25" value="" style="endArrow=classic;startArrow=classic;html=1;rounded=0;fontFamily=Helvetica;fontSize=11;exitX=0;exitY=0.5;exitDx=0;exitDy=0;entryX=0.479;entryY=1.017;entryDx=0;entryDy=0;entryPerimeter=0;dashed=1;fillColor=#d5e8d4;strokeColor=#82b366;" parent="1" edge="1">
          <mxGeometry width="50" height="50" relative="1" as="geometry">
            <mxPoint x="278" y="200" as="sourcePoint" />
            <mxPoint x="172.96000000000004" y="141.01999999999998" as="targetPoint" />
            <Array as="points">
              <mxPoint x="173" y="200" />
            </Array>
          </mxGeometry>
        </mxCell>
        <mxCell id="ZHDutYi5xnlQX7m66QQl-27" value="" style="endArrow=classic;startArrow=classic;html=1;rounded=0;fontFamily=Helvetica;fontSize=11;exitX=1;exitY=0.5;exitDx=0;exitDy=0;entryX=0.108;entryY=0.972;entryDx=0;entryDy=0;entryPerimeter=0;dashed=1;fillColor=#d5e8d4;strokeColor=#82b366;" parent="1" edge="1">
          <mxGeometry width="50" height="50" relative="1" as="geometry">
            <mxPoint x="248" y="370" as="sourcePoint" />
            <mxPoint x="296.36" y="228.32000000000005" as="targetPoint" />
            <Array as="points">
              <mxPoint x="268" y="370" />
              <mxPoint x="268" y="280" />
            </Array>
          </mxGeometry>
        </mxCell>
        <mxCell id="ZHDutYi5xnlQX7m66QQl-28" value="" style="endArrow=classic;startArrow=classic;html=1;rounded=0;fontFamily=Helvetica;fontSize=11;exitX=0.25;exitY=0;exitDx=0;exitDy=0;dashed=1;fillColor=#d5e8d4;strokeColor=#82b366;" parent="1" edge="1">
          <mxGeometry width="50" height="50" relative="1" as="geometry">
            <mxPoint x="355.5" y="320" as="sourcePoint" />
            <mxPoint x="363" y="230" as="targetPoint" />
          </mxGeometry>
        </mxCell>
        <mxCell id="ZHDutYi5xnlQX7m66QQl-29" value="" style="endArrow=classic;startArrow=classic;html=1;rounded=0;fontFamily=Helvetica;fontSize=11;entryX=0.25;entryY=1;entryDx=0;entryDy=0;exitX=-0.009;exitY=0.587;exitDx=0;exitDy=0;dashed=1;fillColor=#d5e8d4;strokeColor=#82b366;exitPerimeter=0;" parent="1" edge="1" source="ZHDutYi5xnlQX7m66QQl-36">
          <mxGeometry width="50" height="50" relative="1" as="geometry">
            <mxPoint x="308" y="420" as="sourcePoint" />
            <mxPoint x="320.5" y="230" as="targetPoint" />
            <Array as="points">
              <mxPoint x="280" y="420" />
              <mxPoint x="280" y="280" />
            </Array>
          </mxGeometry>
        </mxCell>
        <mxCell id="ZHDutYi5xnlQX7m66QQl-31" value="" style="endArrow=classic;startArrow=classic;html=1;rounded=0;fontFamily=Helvetica;fontSize=11;exitX=0.5;exitY=0;exitDx=0;exitDy=0;entryX=0.878;entryY=0.994;entryDx=0;entryDy=0;entryPerimeter=0;dashed=1;fillColor=#d5e8d4;strokeColor=#82b366;" parent="1" edge="1">
          <mxGeometry width="50" height="50" relative="1" as="geometry">
            <mxPoint x="649" y="320" as="sourcePoint" />
            <mxPoint x="427.26" y="229.64" as="targetPoint" />
            <Array as="points">
              <mxPoint x="649" y="300" />
            </Array>
          </mxGeometry>
        </mxCell>
        <mxCell id="ZHDutYi5xnlQX7m66QQl-32" value="" style="endArrow=classic;startArrow=classic;html=1;rounded=0;fontFamily=Helvetica;fontSize=11;exitX=0.98;exitY=0.761;exitDx=0;exitDy=0;exitPerimeter=0;dashed=1;fillColor=#d5e8d4;strokeColor=#82b366;" parent="1" edge="1" target="ZHDutYi5xnlQX7m66QQl-39">
          <mxGeometry width="50" height="50" relative="1" as="geometry">
            <mxPoint x="444.5999999999999" y="215.65999999999997" as="sourcePoint" />
            <mxPoint x="780" y="420" as="targetPoint" />
            <Array as="points">
              <mxPoint x="760" y="320" />
              <mxPoint x="760" y="415" />
            </Array>
          </mxGeometry>
        </mxCell>
        <mxCell id="ZHDutYi5xnlQX7m66QQl-4" value="" style="rounded=1;whiteSpace=wrap;html=1;fontFamily=Helvetica;fontSize=14;fillColor=#d5e8d4;arcSize=50;strokeColor=#82b366;" parent="1" vertex="1">
          <mxGeometry x="63.5" y="80" width="242" height="60" as="geometry" />
        </mxCell>
        <mxCell id="ZHDutYi5xnlQX7m66QQl-8" value="Zabbix Server TMobil&#xa;Plataforma de Monitoramento" style="text;strokeColor=none;fillColor=none;spacingLeft=4;spacingRight=4;overflow=hidden;rotatable=0;points=[[0,0.5],[1,0.5]];portConstraint=eastwest;fontSize=13;fontStyle=1" parent="1" vertex="1">
          <mxGeometry x="81" y="90" width="207" height="40" as="geometry" />
        </mxCell>
        <mxCell id="ZHDutYi5xnlQX7m66QQl-9" value="" style="rounded=1;whiteSpace=wrap;html=1;fontFamily=Helvetica;fontSize=14;arcSize=50;fillColor=none;" parent="1" vertex="1">
          <mxGeometry x="280" y="170" width="172" height="60" as="geometry" />
        </mxCell>
        <mxCell id="ZHDutYi5xnlQX7m66QQl-20" value="" style="endArrow=classic;startArrow=classic;html=1;rounded=0;dashed=1;fontFamily=Helvetica;fontSize=12;entryX=0;entryY=0.5;entryDx=0;entryDy=0;exitX=1;exitY=0.5;exitDx=0;exitDy=0;fillColor=#d5e8d4;strokeColor=#82b366;" parent="1" source="ZHDutYi5xnlQX7m66QQl-9" edge="1">
          <mxGeometry width="50" height="50" relative="1" as="geometry">
            <mxPoint x="310" y="300" as="sourcePoint" />
            <mxPoint x="578" y="200" as="targetPoint" />
          </mxGeometry>
        </mxCell>
        <mxCell id="ZHDutYi5xnlQX7m66QQl-21" value="" style="rounded=1;whiteSpace=wrap;html=1;fontFamily=Helvetica;fontSize=14;fillColor=none;arcSize=50;" parent="1" vertex="1">
          <mxGeometry x="537" y="170" width="192" height="60" as="geometry" />
        </mxCell>
        <mxCell id="ZHDutYi5xnlQX7m66QQl-22" value="SmartNet Casa-Edelson" style="text;strokeColor=none;fillColor=none;spacingLeft=4;spacingRight=4;overflow=hidden;rotatable=0;points=[[0,0.5],[1,0.5]];portConstraint=eastwest;fontSize=12;fontStyle=1" parent="1" vertex="1">
          <mxGeometry x="558" y="185" width="150" height="30" as="geometry" />
        </mxCell>
        <mxCell id="ZHDutYi5xnlQX7m66QQl-23" value="" style="rounded=1;whiteSpace=wrap;html=1;fontFamily=Helvetica;fontSize=14;fillColor=none;arcSize=50;" parent="1" vertex="1">
          <mxGeometry x="57" y="340" width="192" height="60" as="geometry" />
        </mxCell>
        <mxCell id="ZHDutYi5xnlQX7m66QQl-30" value="" style="rounded=1;whiteSpace=wrap;html=1;fontFamily=Helvetica;fontSize=14;fillColor=none;arcSize=50;" parent="1" vertex="1">
          <mxGeometry x="487" y="320" width="242" height="60" as="geometry" />
        </mxCell>
        <mxCell id="ZHDutYi5xnlQX7m66QQl-34" value="" style="rounded=1;whiteSpace=wrap;html=1;fontFamily=Helvetica;fontSize=14;fillColor=none;arcSize=50;" parent="1" vertex="1">
          <mxGeometry x="300" y="320" width="180" height="60" as="geometry" />
        </mxCell>
        <mxCell id="ZHDutYi5xnlQX7m66QQl-35" value="EMB Pe Donizetti - 01" style="text;strokeColor=none;fillColor=none;spacingLeft=4;spacingRight=4;overflow=hidden;rotatable=0;points=[[0,0.5],[1,0.5]];portConstraint=eastwest;fontSize=12;fontStyle=1" parent="1" vertex="1">
          <mxGeometry x="322.5" y="335" width="147" height="30" as="geometry" />
        </mxCell>
        <mxCell id="ZHDutYi5xnlQX7m66QQl-36" value="" style="rounded=1;whiteSpace=wrap;html=1;fontFamily=Helvetica;fontSize=14;fillColor=none;arcSize=50;" parent="1" vertex="1">
          <mxGeometry x="300" y="385" width="180" height="60" as="geometry" />
        </mxCell>
        <mxCell id="ZHDutYi5xnlQX7m66QQl-37" value="EMB Pe Donizetti - 02" style="text;strokeColor=none;fillColor=none;spacingLeft=4;spacingRight=4;overflow=hidden;rotatable=0;points=[[0,0.5],[1,0.5]];portConstraint=eastwest;fontSize=12;fontStyle=1" parent="1" vertex="1">
          <mxGeometry x="322.5" y="400" width="147" height="30" as="geometry" />
        </mxCell>
        <mxCell id="ZHDutYi5xnlQX7m66QQl-38" value="EMEB Darci Troncoso Peres - 01" style="text;strokeColor=none;fillColor=none;spacingLeft=4;spacingRight=4;overflow=hidden;rotatable=0;points=[[0,0.5],[1,0.5]];portConstraint=eastwest;fontSize=12;fontStyle=1" parent="1" vertex="1">
          <mxGeometry x="507" y="335" width="202" height="30" as="geometry" />
        </mxCell>
        <mxCell id="ZHDutYi5xnlQX7m66QQl-39" value="" style="rounded=1;whiteSpace=wrap;html=1;fontFamily=Helvetica;fontSize=14;fillColor=none;arcSize=50;" parent="1" vertex="1">
          <mxGeometry x="487" y="385" width="242" height="60" as="geometry" />
        </mxCell>
        <mxCell id="ZHDutYi5xnlQX7m66QQl-40" value="EMEB Darci Troncoso Peres - 02" style="text;strokeColor=none;fillColor=none;spacingLeft=4;spacingRight=4;overflow=hidden;rotatable=0;points=[[0,0.5],[1,0.5]];portConstraint=eastwest;fontSize=12;fontStyle=1" parent="1" vertex="1">
          <mxGeometry x="507" y="400" width="202" height="30" as="geometry" />
        </mxCell>
        <mxCell id="ZHDutYi5xnlQX7m66QQl-15" value="VPN-RDV-SERVER" style="text;strokeColor=none;fillColor=none;spacingLeft=4;spacingRight=4;overflow=hidden;rotatable=0;points=[[0,0.5],[1,0.5]];portConstraint=eastwest;fontSize=12;fontStyle=1" parent="1" vertex="1">
          <mxGeometry x="305.5" y="185" width="129" height="30" as="geometry" />
        </mxCell>
        <mxCell id="ZHDutYi5xnlQX7m66QQl-24" value="LARCOM-RDV-01" style="text;strokeColor=none;fillColor=none;spacingLeft=4;spacingRight=4;overflow=hidden;rotatable=0;points=[[0,0.5],[1,0.5]];portConstraint=eastwest;fontSize=12;fontStyle=1" parent="1" vertex="1">
          <mxGeometry x="98" y="355" width="129" height="30" as="geometry" />
        </mxCell>
      </root>
    </mxGraphModel>
  </diagram>
</mxfile>
